<svg width="64" height="77" viewBox="0 0 64 77" fill="none" xmlns="http://www.w3.org/2000/svg">
<path d="M19.5617 21.858L18.3083 22.6235L19.5617 24.1543L22.5986 23.2932" fill="#FCFCFC"/>
<path d="M1.42862 34.0093L2.05245 32.5262L4.03492 31.2384L6.00017 32.6238L4.21479 35.9937L1.42862 34.0093Z" fill="#FCFCFC"/>
<path d="M2.20175 32.4152L1.38274 34.1049L4.25311 36.0185L6.07101 32.6104L4.03496 31.1331L2.20175 32.4152Z" stroke="#FCFCFC" stroke-miterlimit="10"/>
<path d="M36.6405 8.08027L35.8272 11.7161L35.7239 12.028L34.2963 16.3087L31.3303 18.67L40.5155 19.2747L34.2006 16.4043" stroke="#FCFCFC" stroke-miterlimit="10"/>
<path d="M40.6972 19.378H47.8062L35.9228 11.9284L50.0833 17.7438L48.0492 19.378L38.4105 30.9475L29.608 37.8364L31.1389 32.4784L19.7359 37.8364L11.2376 35.9228L4.73147 36.4969L4.28944 36.185L1.47839 34.2006L2.05246 32.4784L4.1574 30.9475L13.7253 25.7808L15.4475 19.8487L22.7191 23.2932L31.3302 18.9704" stroke="#FCFCFC" stroke-miterlimit="10"/>
<path d="M6.07097 32.4784L4.28943 36.185L6.07097 32.4784Z" stroke="#FCFCFC" stroke-miterlimit="10"/>
<path d="M4.03495 31.0356L6.071 32.4784L13.7406 25.7311L22.7192 23.2932L20.5185 32.4784L11.2377 35.9229" stroke="#FCFCFC" stroke-miterlimit="10"/>
<path d="M38.4105 30.9476L29.9907 25.9722L30.0558 26.3397L31.1389 32.4784H20.5185L22.7191 23.2932" stroke="#FCFCFC" stroke-miterlimit="10"/>
<path d="M22.7976 23.2932L29.9908 25.9723L40.5155 19.2747" stroke="#FCFCFC" stroke-miterlimit="10"/>
<path d="M28.1728 8.84573L28.9383 7.31486L25.4938 2.53091L23.2932 7.41054L28.1728 8.84573Z" stroke="#FCFCFC" stroke-miterlimit="10"/>
<path d="M24.4413 11.429L23.2932 7.41047L24.4413 11.429Z" stroke="#FCFCFC" stroke-miterlimit="10"/>
<path d="M28.0963 11.429L27.9815 8.84566L28.0963 11.429Z" stroke="#FCFCFC" stroke-miterlimit="10"/>
<path d="M24.3457 11.4291H28.0963L28.2877 13.0441L31.3302 18.7007L21.1883 18.318L15.2562 19.8488L23.6759 11.6204H24.8241L21.3796 18.318" stroke="#FCFCFC" stroke-miterlimit="10"/>
<path d="M28.9383 7.31482L30.2778 4.44445L36.5926 8.08025L28.2876 13.0441" stroke="#FCFCFC" stroke-miterlimit="10"/>
<path d="M34.5833 1.47842L30.2778 4.44447L36.5926 8.08027L34.5833 1.47842Z" stroke="#FCFCFC" stroke-miterlimit="10"/>
<path d="M4.73148 36.497V38.2536L8.08025 40.0371L19.7359 37.8365L29.6635 37.6394L42.6204 40.3241L42.9495 40.5844L49.892 46.0649L61.3735 47.213L59.7833 35.9229L62.5848 34.3327L57.1636 25.3982L48.0492 19.3781L42.8825 25.58L47.0216 32.0957L57.1636 25.5896L59.8426 35.7315L47.1135 32.4785L58.8858 46.8303L54.4846 65.0093L51.4229 60.2254L50.0833 46.2562" stroke="#FCFCFC" stroke-miterlimit="10"/>
<path d="M38.6019 30.9475L42.6204 40.7068L46.8035 32.4592" stroke="#FCFCFC" stroke-miterlimit="10"/>
<path d="M51.1837 57.7415L42.9495 40.5844L38.9846 54.2932L51.4229 60.2253" stroke="#FCFCFC" stroke-miterlimit="10"/>
<path d="M19.7359 37.8364L31.9043 49.7006L32.6698 44.3426L29.608 37.8364" stroke="#FCFCFC" stroke-miterlimit="10"/>
<path d="M33.3395 44.5071L42.3257 40.7068" stroke="#FCFCFC" stroke-miterlimit="10"/>
<path d="M32.3578 49.7007L38.9845 54.2932" stroke="#FCFCFC" stroke-miterlimit="10"/>
<path d="M25.5187 43.7685V52.4543L29.4263 48.1124" stroke="#FCFCFC" stroke-miterlimit="10"/>
<path d="M25.1111 52.4543L37.2624 64.6265L32.0976 49.9149" stroke="#FCFCFC" stroke-miterlimit="10"/>
<path d="M37.4537 64.2438L38.6019 54.5075L41.0895 74.9599L51.2315 60.608L46.2562 75.7253L41.0895 75.1513L37.4537 65.0093" stroke="#FCFCFC" stroke-miterlimit="10"/>
<path d="M21.1883 18.7963C21.4525 18.7963 21.6667 18.5821 21.6667 18.3179C21.6667 18.0537 21.4525 17.8395 21.1883 17.8395C20.9241 17.8395 20.7099 18.0537 20.7099 18.3179C20.7099 18.5821 20.9241 18.7963 21.1883 18.7963Z" fill="#FCFCFC"/>
<path d="M15.2562 20.3272C15.5204 20.3272 15.7346 20.113 15.7346 19.8488C15.7346 19.5846 15.5204 19.3704 15.2562 19.3704C14.992 19.3704 14.7778 19.5846 14.7778 19.8488C14.7778 20.113 14.992 20.3272 15.2562 20.3272Z" fill="#FCFCFC"/>
<path d="M13.7253 26.4506C13.9895 26.4506 14.2037 26.2364 14.2037 25.9722C14.2037 25.708 13.9895 25.4938 13.7253 25.4938C13.4611 25.4938 13.2469 25.708 13.2469 25.9722C13.2469 26.2364 13.4611 26.4506 13.7253 26.4506Z" fill="#FCFCFC"/>
<path d="M20.6142 32.9568C20.8784 32.9568 21.0926 32.7426 21.0926 32.4784C21.0926 32.2142 20.8784 32 20.6142 32C20.35 32 20.1358 32.2142 20.1358 32.4784C20.1358 32.7426 20.35 32.9568 20.6142 32.9568Z" fill="#FCFCFC"/>
<path d="M31.1389 32.7654C31.4031 32.7654 31.6173 32.5512 31.6173 32.287C31.6173 32.0228 31.4031 31.8086 31.1389 31.8086C30.8747 31.8086 30.6605 32.0228 30.6605 32.287C30.6605 32.5512 30.8747 32.7654 31.1389 32.7654Z" fill="#FCFCFC"/>
<path d="M38.3148 31.6172C38.6319 31.6172 38.8889 31.3602 38.8889 31.0432C38.8889 30.7261 38.6319 30.4691 38.3148 30.4691C37.9978 30.4691 37.7408 30.7261 37.7408 31.0432C37.7408 31.3602 37.9978 31.6172 38.3148 31.6172Z" fill="#FCFCFC"/>
<path d="M42.9074 26.2593C43.2245 26.2593 43.4815 26.0022 43.4815 25.6852C43.4815 25.3681 43.2245 25.1111 42.9074 25.1111C42.5904 25.1111 42.3333 25.3681 42.3333 25.6852C42.3333 26.0022 42.5904 26.2593 42.9074 26.2593Z" fill="#FCFCFC"/>
<path d="M19.6574 38.5062C19.9216 38.5062 20.1358 38.292 20.1358 38.0278C20.1358 37.7635 19.9216 37.5494 19.6574 37.5494C19.3932 37.5494 19.179 37.7635 19.179 38.0278C19.179 38.292 19.3932 38.5062 19.6574 38.5062Z" fill="#FCFCFC"/>
<path d="M4.73145 38.8889C4.99566 38.8889 5.20985 38.6747 5.20985 38.4105C5.20985 38.1463 4.99566 37.9321 4.73145 37.9321C4.46724 37.9321 4.25306 38.1463 4.25306 38.4105C4.25306 38.6747 4.46724 38.8889 4.73145 38.8889Z" fill="#FCFCFC"/>
<path d="M11.2377 36.4012C11.5019 36.4012 11.7161 36.1871 11.7161 35.9228C11.7161 35.6586 11.5019 35.4445 11.2377 35.4445C10.9734 35.4445 10.7593 35.6586 10.7593 35.9228C10.7593 36.1871 10.9734 36.4012 11.2377 36.4012Z" fill="#FCFCFC"/>
<path d="M6.07098 33.1482C6.33519 33.1482 6.54937 32.934 6.54937 32.6698C6.54937 32.4056 6.33519 32.1914 6.07098 32.1914C5.80677 32.1914 5.59258 32.4056 5.59258 32.6698C5.59258 32.934 5.80677 33.1482 6.07098 33.1482Z" fill="#FCFCFC"/>
<path d="M3.96604 31.4259C4.23025 31.4259 4.44444 31.2117 4.44444 30.9475C4.44444 30.6833 4.23025 30.4691 3.96604 30.4691C3.70183 30.4691 3.48765 30.6833 3.48765 30.9475C3.48765 31.2117 3.70183 31.4259 3.96604 31.4259Z" fill="#FCFCFC"/>
<path d="M1.4784 34.4877C1.74261 34.4877 1.95679 34.2735 1.95679 34.0093C1.95679 33.7451 1.74261 33.5309 1.4784 33.5309C1.21418 33.5309 1 33.7451 1 34.0093C1 34.2735 1.21418 34.4877 1.4784 34.4877Z" fill="#FCFCFC"/>
<path d="M4.34876 36.7839C4.61297 36.7839 4.82715 36.5698 4.82715 36.3055C4.82715 36.0413 4.61297 35.8271 4.34876 35.8271C4.08455 35.8271 3.87036 36.0413 3.87036 36.3055C3.87036 36.5698 4.08455 36.7839 4.34876 36.7839Z" fill="#FCFCFC"/>
<path d="M7.98455 40.4198C8.24876 40.4198 8.46295 40.2056 8.46295 39.9414C8.46295 39.6772 8.24876 39.463 7.98455 39.463C7.72034 39.463 7.50616 39.6772 7.50616 39.9414C7.50616 40.2056 7.72034 40.4198 7.98455 40.4198Z" fill="#FCFCFC"/>
<path d="M31.3302 19.179C31.5945 19.179 31.8086 18.9648 31.8086 18.7006C31.8086 18.4364 31.5945 18.2222 31.3302 18.2222C31.066 18.2222 30.8519 18.4364 30.8519 18.7006C30.8519 18.9648 31.066 19.179 31.3302 19.179Z" fill="#FCFCFC"/>
<path d="M40.5154 19.7531C40.7796 19.7531 40.9938 19.5389 40.9938 19.2747C40.9938 19.0105 40.7796 18.7963 40.5154 18.7963C40.2512 18.7963 40.037 19.0105 40.037 19.2747C40.037 19.5389 40.2512 19.7531 40.5154 19.7531Z" fill="#FCFCFC"/>
<path d="M57.1636 25.8765C57.4278 25.8765 57.642 25.6623 57.642 25.3981C57.642 25.1339 57.4278 24.9197 57.1636 24.9197C56.8994 24.9197 56.6852 25.1339 56.6852 25.3981C56.6852 25.6623 56.8994 25.8765 57.1636 25.8765Z" fill="#FCFCFC"/>
<path d="M62.5216 34.8703C62.7858 34.8703 63 34.6561 63 34.3919C63 34.1277 62.7858 33.9135 62.5216 33.9135C62.2574 33.9135 62.0432 34.1277 62.0432 34.3919C62.0432 34.6561 62.2574 34.8703 62.5216 34.8703Z" fill="#FCFCFC"/>
<path d="M60.034 36.2099C60.2982 36.2099 60.5123 35.9957 60.5123 35.7315C60.5123 35.4673 60.2982 35.2531 60.034 35.2531C59.7697 35.2531 59.5556 35.4673 59.5556 35.7315C59.5556 35.9957 59.7697 36.2099 60.034 36.2099Z" fill="#FCFCFC"/>
<path d="M61.5648 47.6914C61.829 47.6914 62.0432 47.4772 62.0432 47.213C62.0432 46.9488 61.829 46.7346 61.5648 46.7346C61.3006 46.7346 61.0864 46.9488 61.0864 47.213C61.0864 47.4772 61.3006 47.6914 61.5648 47.6914Z" fill="#FCFCFC"/>
<path d="M47.9784 19.9445C48.2426 19.9445 48.4568 19.7303 48.4568 19.4661C48.4568 19.2019 48.2426 18.9877 47.9784 18.9877C47.7142 18.9877 47.5 19.2019 47.5 19.4661C47.5 19.7303 47.7142 19.9445 47.9784 19.9445Z" fill="#FCFCFC"/>
<path d="M29.7994 38.3148C30.0636 38.3148 30.2778 38.1007 30.2778 37.8365C30.2778 37.5722 30.0636 37.3581 29.7994 37.3581C29.5352 37.3581 29.321 37.5722 29.321 37.8365C29.321 38.1007 29.5352 38.3148 29.7994 38.3148Z" fill="#FCFCFC"/>
<path d="M25.3982 44.2469C25.6624 44.2469 25.8766 44.0327 25.8766 43.7685C25.8766 43.5043 25.6624 43.2901 25.3982 43.2901C25.134 43.2901 24.9198 43.5043 24.9198 43.7685C24.9198 44.0327 25.134 44.2469 25.3982 44.2469Z" fill="#FCFCFC"/>
<path d="M29.608 48.2654C29.8722 48.2654 30.0864 48.0512 30.0864 47.787C30.0864 47.5228 29.8722 47.3086 29.608 47.3086C29.3438 47.3086 29.1296 47.5228 29.1296 47.787C29.1296 48.0512 29.3438 48.2654 29.608 48.2654Z" fill="#FCFCFC"/>
<path d="M29.9908 26.2593C30.255 26.2593 30.4692 26.0451 30.4692 25.7809C30.4692 25.5167 30.255 25.3025 29.9908 25.3025C29.7266 25.3025 29.5124 25.5167 29.5124 25.7809C29.5124 26.0451 29.7266 26.2593 29.9908 26.2593Z" fill="#FCFCFC"/>
<path d="M42.7964 41.2541C43.1822 41.2541 43.4949 40.9414 43.4949 40.5556C43.4949 40.1699 43.1822 39.8572 42.7964 39.8572C42.4107 39.8572 42.098 40.1699 42.098 40.5556C42.098 40.9414 42.4107 41.2541 42.7964 41.2541Z" fill="#FCFCFC"/>
<path d="M47.0063 33.0256C47.3921 33.0256 47.7048 32.7129 47.7048 32.3272C47.7048 31.9414 47.3921 31.6287 47.0063 31.6287C46.6206 31.6287 46.3079 31.9414 46.3079 32.3272C46.3079 32.7129 46.6206 33.0256 47.0063 33.0256Z" fill="#FCFCFC"/>
<path d="M32.2718 50.4393C32.6575 50.4393 32.9702 50.1265 32.9702 49.7408C32.9702 49.3551 32.6575 49.0423 32.2718 49.0423C31.886 49.0423 31.5733 49.3551 31.5733 49.7408C31.5733 50.1265 31.886 50.4393 32.2718 50.4393Z" fill="#FCFCFC"/>
<path d="M33.0372 45.2726C33.4229 45.2726 33.7356 44.9599 33.7356 44.5741C33.7356 44.1884 33.4229 43.8757 33.0372 43.8757C32.6514 43.8757 32.3387 44.1884 32.3387 44.5741C32.3387 44.9599 32.6514 45.2726 33.0372 45.2726Z" fill="#FCFCFC"/>
<path d="M25.3828 52.7355C25.7686 52.7355 26.0813 52.4228 26.0813 52.0371C26.0813 51.6513 25.7686 51.3386 25.3828 51.3386C24.9971 51.3386 24.6844 51.6513 24.6844 52.0371C24.6844 52.4228 24.9971 52.7355 25.3828 52.7355Z" fill="#FCFCFC"/>
<path d="M50.068 46.8034C50.4537 46.8034 50.7665 46.4907 50.7665 46.105C50.7665 45.7192 50.4537 45.4065 50.068 45.4065C49.6823 45.4065 49.3696 45.7192 49.3696 46.105C49.3696 46.4907 49.6823 46.8034 50.068 46.8034Z" fill="#FCFCFC"/>
<path d="M37.4384 65.1739C37.8242 65.1739 38.1369 64.8612 38.1369 64.4754C38.1369 64.0897 37.8242 63.777 37.4384 63.777C37.0527 63.777 36.74 64.0897 36.74 64.4754C36.74 64.8612 37.0527 65.1739 37.4384 65.1739Z" fill="#FCFCFC"/>
<path d="M41.2656 75.6985C41.6513 75.6985 41.964 75.3858 41.964 75.0001C41.964 74.6143 41.6513 74.3016 41.2656 74.3016C40.8798 74.3016 40.5671 74.6143 40.5671 75.0001C40.5671 75.3858 40.8798 75.6985 41.2656 75.6985Z" fill="#FCFCFC"/>
<path d="M46.2409 76.6554C46.6266 76.6554 46.9393 76.3427 46.9393 75.9569C46.9393 75.5712 46.6266 75.2584 46.2409 75.2584C45.8551 75.2584 45.5424 75.5712 45.5424 75.9569C45.5424 76.3427 45.8551 76.6554 46.2409 76.6554Z" fill="#FCFCFC"/>
<path d="M54.2779 65.7479C54.6636 65.7479 54.9763 65.4352 54.9763 65.0494C54.9763 64.6637 54.6636 64.351 54.2779 64.351C53.8921 64.351 53.5794 64.6637 53.5794 65.0494C53.5794 65.4352 53.8921 65.7479 54.2779 65.7479Z" fill="#FCFCFC"/>
<path d="M51.2162 61.1553C51.6019 61.1553 51.9146 60.8426 51.9146 60.4568C51.9146 60.0711 51.6019 59.7584 51.2162 59.7584C50.8304 59.7584 50.5177 60.0711 50.5177 60.4568C50.5177 60.8426 50.8304 61.1553 51.2162 61.1553Z" fill="#FCFCFC"/>
<path d="M38.9693 54.8405C39.355 54.8405 39.6677 54.5278 39.6677 54.1421C39.6677 53.7563 39.355 53.4436 38.9693 53.4436C38.5835 53.4436 38.2708 53.7563 38.2708 54.1421C38.2708 54.5278 38.5835 54.8405 38.9693 54.8405Z" fill="#FCFCFC"/>
<path d="M50.2747 18.2222C50.5389 18.2222 50.7531 18.0081 50.7531 17.7439C50.7531 17.4796 50.5389 17.2655 50.2747 17.2655C50.0105 17.2655 49.7963 17.4796 49.7963 17.7439C49.7963 18.0081 50.0105 18.2222 50.2747 18.2222Z" fill="#FCFCFC"/>
<path d="M34.7747 1.95679C35.0389 1.95679 35.2531 1.74261 35.2531 1.4784C35.2531 1.21418 35.0389 1 34.7747 1C34.5105 1 34.2963 1.21418 34.2963 1.4784C34.2963 1.74261 34.5105 1.95679 34.7747 1.95679Z" fill="#FCFCFC"/>
<path d="M30.3735 4.82716C30.6377 4.82716 30.8519 4.61297 30.8519 4.34876C30.8519 4.08455 30.6377 3.87037 30.3735 3.87037C30.1093 3.87037 29.8951 4.08455 29.8951 4.34876C29.8951 4.61297 30.1093 4.82716 30.3735 4.82716Z" fill="#FCFCFC"/>
<path d="M36.6883 8.46299C36.9525 8.46299 37.1667 8.2488 37.1667 7.98459C37.1667 7.72038 36.9525 7.5062 36.6883 7.5062C36.4241 7.5062 36.2099 7.72038 36.2099 7.98459C36.2099 8.2488 36.4241 8.46299 36.6883 8.46299Z" fill="#FCFCFC"/>
<path d="M35.9229 12.4815C36.1871 12.4815 36.4012 12.2673 36.4012 12.0031C36.4012 11.7389 36.1871 11.5247 35.9229 11.5247C35.6586 11.5247 35.4445 11.7389 35.4445 12.0031C35.4445 12.2673 35.6586 12.4815 35.9229 12.4815Z" fill="#FCFCFC"/>
<path d="M25.5895 3.10493C25.8537 3.10493 26.0679 2.89075 26.0679 2.62654C26.0679 2.36233 25.8537 2.14814 25.5895 2.14814C25.3253 2.14814 25.1111 2.36233 25.1111 2.62654C25.1111 2.89075 25.3253 3.10493 25.5895 3.10493Z" fill="#FCFCFC"/>
<path d="M27.8858 9.22837C28.15 9.22837 28.3642 9.01419 28.3642 8.74998C28.3642 8.48577 28.15 8.27158 27.8858 8.27158C27.6216 8.27158 27.4074 8.48577 27.4074 8.74998C27.4074 9.01419 27.6216 9.22837 27.8858 9.22837Z" fill="#FCFCFC"/>
<path d="M28.0772 13.6296C28.3414 13.6296 28.5556 13.4154 28.5556 13.1512C28.5556 12.887 28.3414 12.6728 28.0772 12.6728C27.813 12.6728 27.5988 12.887 27.5988 13.1512C27.5988 13.4154 27.813 13.6296 28.0772 13.6296Z" fill="#FCFCFC"/>
<path d="M23.2932 7.69753C23.5574 7.69753 23.7716 7.48334 23.7716 7.21913C23.7716 6.95492 23.5574 6.74074 23.2932 6.74074C23.029 6.74074 22.8148 6.95492 22.8148 7.21913C22.8148 7.48334 23.029 7.69753 23.2932 7.69753Z" fill="#FCFCFC"/>
<path d="M28.0772 11.716C28.3414 11.716 28.5556 11.5019 28.5556 11.2377C28.5556 10.9734 28.3414 10.7593 28.0772 10.7593C27.813 10.7593 27.5988 10.9734 27.5988 11.2377C27.5988 11.5019 27.813 11.716 28.0772 11.716Z" fill="#FCFCFC"/>
<path d="M19.5292 24.116L18.3083 22.6235L19.577 21.8044" stroke="#FCFCFC" stroke-miterlimit="10"/>
</svg>
